<svg xmlns="http://www.w3.org/2000/svg" viewBox="0 0 105.6 181.6">
  <path d="M105.6 76.5c0 8.7-.2 17.3.1 26 .1 3.9-1.2 4.8-4.9 4.7-5.6-.3-11.3-.3-17 0-4 .2-5.4-.9-5.4-5.2.3-15.5.1-31 .1-46.5 0-8.8-3.3-16.2-9.6-22.2a24.4 24.4 0 00-36.8 5.1 35.6 35.6 0 00-5.6 19.8c.2 5.7 0 11.3.1 17 .1 2.4-.4 3.7-3.2 3.6-6.7-.2-13.3-.1-20 0-2.7.1-3.5-1-3.4-3.6.2-8.8-.2-17.7.5-26.5C3.3 15.5 37.7-10.7 73 4.3A52.4 52.4 0 01105.3 50c.9 8.7.1 17.6.1 26.5h.2z" fill="#2a418a"/>
  <path d="M.1 110.6c0-7.3.1-14.7-.1-22-.1-3.3.7-4.8 4.4-4.7 6 .3 12 .2 18 0 3.2-.1 4.3.9 4.3 4.2-.2 12.6-.2 25.3 0 38 .2 15.8 12 28.5 26.2 28.4 13.5-.1 25-11.7 25.7-26.1.2-4.2.2-8.3 0-12.5-.1-2.6.5-4 3.5-3.9 6.7.2 13.3.1 20 0 2.5 0 3.5.7 3.6 3.4a78 78 0 01-5.1 34.7A51.7 51.7 0 0124 172.5 53.3 53.3 0 01.3 127.1c-.3-5.5-.2-11-.2-16.5z" fill="#ef6928"/>
</svg>
